<svg width="20" height="16" fill="none" xmlns="http://www.w3.org/2000/svg"><path d="M10.301 4.937V.911h6.6c1.743 0 2.606.863 2.606 2.573v4.408h-6.193c1.121-.498 1.885-1.42 1.885-2.532 0-1.286-.947-2.24-2.225-2.24-1.104 0-2.092.688-2.673 1.817Zm-1.51 2.822C7.056 7.76 5.57 6.572 5.57 5.46c0-.664.407-1.07 1.037-1.07 1.312 0 2.45 1.452 2.45 3.12v.25H8.79Zm1.934 0h-.266V7.51c0-1.668 1.137-3.12 2.449-3.12.639 0 1.037.406 1.037 1.07 0 1.112-1.477 2.3-3.22 2.3ZM0 7.892V3.484C0 1.774.872.911 2.606.911h6.608v4.026C8.64 3.808 7.654 3.119 6.54 3.119c-1.27 0-2.225.955-2.225 2.241 0 1.113.772 2.034 1.885 2.532H0Zm14.585 3.76c-1.22-.124-2.914-1.718-3.42-2.772h8.342v3.644c0 1.71-.863 2.565-2.607 2.565h-6.599V9.494h.067c.572 1.81 2.755 3.412 4.117 3.611.506.066.822-.299.822-.689 0-.44-.258-.722-.723-.764ZM2.606 15.09C.872 15.089 0 14.234 0 12.524V8.88h8.359c-.515 1.054-2.2 2.631-3.428 2.772-.457.05-.714.324-.714.764 0 .39.315.755.822.689 1.36-.2 3.544-1.801 4.117-3.61h.058v5.594H2.606Z" fill="currentColor"/></svg>
