<svg xmlns="http://www.w3.org/2000/svg" width="20" height="23" fill="none"><path fill="black" d="M13.822 1.184c0-.407.236-.504.526-.217l4.68 4.656c.29.288.191.523-.218.523h-4.244a.744.744 0 0 1-.745-.74V1.184Zm-3.555 9.567h-.544v3.557h.533c.437 0 .77-.143.997-.43.228-.286.342-.695.342-1.227v-.25c0-.54-.113-.951-.338-1.23-.226-.28-.556-.42-.99-.42Zm-3.732.269a.765.765 0 0 0-.28-.196 1.033 1.033 0 0 0-.406-.073h-.986v1.673h.986c.157 0 .292-.02.407-.059a.742.742 0 0 0 .28-.163.64.64 0 0 0 .16-.25 1.063 1.063 0 0 0 0-.65.794.794 0 0 0-.16-.282Zm12.721-3.987h-5.583a.744.744 0 0 1-.744-.74V.74a.744.744 0 0 0-.744-.74H.744A.744.744 0 0 0 0 .74v21.52c0 .407.335.74.744.74h18.512c.41 0 .744-.333.744-.74V7.774a.745.745 0 0 0-.744-.74Zm-11.53 5.292c-.091.207-.223.384-.396.53-.173.147-.384.26-.633.339-.25.079-.532.119-.848.119h-.986v1.877H3.76V9.862h2.09c.316 0 .599.044.848.132.249.088.46.21.633.367s.304.344.395.56c.09.216.136.451.136.705 0 .258-.045.492-.136.699Zm4.988.325c0 .381-.06.727-.179 1.038a2.241 2.241 0 0 1-1.282 1.319 2.634 2.634 0 0 1-.996.183H8.62V9.862h1.648c.36 0 .69.062.991.185.3.122.558.296.773.52.214.223.382.49.502.803.12.312.18.659.18 1.039v.241Zm4.29-1.899H14.62v1.376h2.119v.886h-2.12v2.177h-1.103V9.862h3.488v.89Z"/></svg>
