<svg xmlns="http://www.w3.org/2000/svg" width="47" height="50" fill="none"><path fill="#000" d="M20.248 8.283c-.386-.56-.636-1.114-.765-1.727-.46-2.187 1.116-4.407 3.344-4.752 2.202-.343 4.225 1.116 4.632 3.22a3.914 3.914 0 0 1-.58 2.979c-.125.189-.1.282.05.43 3.033 3.017 6.061 6.04 9.09 9.062.666.665 1.325 1.333 2.002 1.988a.634.634 0 0 0 .402.169c1.3.012 2.604.005 3.905.007 1.371 0 2.396 1.013 2.396 2.384.003 6.108.003 17.702.003 23.81 0 1.325-1.028 2.353-2.372 2.355-3.056.006-6.112 0-9.168 0H6.597c-.674 0-1.349.008-2.023-.002-1.341-.018-2.356-1.033-2.356-2.374-.003-6.087.01-17.663-.008-23.754-.005-1.373 1.129-2.467 2.452-2.429 1.273.038 2.549.003 3.822.01a.65.65 0 0 0 .507-.209c1.973-1.978 3.95-3.95 5.928-5.924 1.697-1.693 3.395-3.386 5.094-5.077.066-.063.152-.106.235-.166Zm3.23 12.71c-6.223 0-12.446.007-18.67-.01-.774-.003-1.264.49-1.262 1.249.018 6.007.01 17.5.01 23.507 0 .706.432 1.139 1.134 1.139h37.506c.79 0 1.192-.403 1.192-1.19v-23.59a1.3 1.3 0 0 0-.032-.327c-.137-.507-.526-.779-1.097-.779H23.48Zm-12.726-1.354H36.17L25.706 9.2c-1.492.89-2.998.873-4.485-.007L10.75 19.64ZM26.18 5.864c.025-1.492-1.157-2.745-2.609-2.772-1.548-.03-2.783 1.151-2.814 2.686-.027 1.444 1.182 2.699 2.632 2.726 1.526.03 2.766-1.144 2.791-2.64Z"/><path fill="#000" d="M11.4 30.812h1.216c.038.32.204.577.495.774.29.196.654.294 1.083.294.422 0 .765-.093 1.033-.282.268-.189.402-.428.402-.718a.747.747 0 0 0-.29-.612c-.195-.157-.513-.288-.953-.39l-.909-.215c-.644-.149-1.124-.378-1.437-.693-.313-.312-.47-.72-.47-1.222 0-.617.243-1.119.73-1.502.485-.385 1.114-.577 1.882-.577.77 0 1.391.19 1.864.57.472.38.714.879.732 1.496h-1.195a1.017 1.017 0 0 0-.421-.768c-.253-.187-.581-.28-.988-.28-.396 0-.715.088-.96.267a.824.824 0 0 0-.366.703c0 .235.096.424.285.567.19.146.5.27.93.373l.806.184c.71.161 1.225.398 1.545.708.321.31.48.726.48 1.247 0 .663-.247 1.19-.745 1.578-.497.388-1.17.584-2.02.584-.811 0-1.46-.186-1.953-.559-.49-.375-.747-.884-.775-1.527ZM20.928 25.666c1.02 0 1.83.325 2.427.976.598.65.896 1.53.896 2.643 0 1.114-.298 1.993-.896 2.64-.599.648-1.407.973-2.427.973-1.023 0-1.834-.322-2.433-.972-.598-.65-.896-1.53-.896-2.641s.298-1.993.896-2.643c.6-.65 1.41-.976 2.433-.976Zm1.492 1.757c-.368-.459-.866-.69-1.492-.69-.624 0-1.122.229-1.493.687-.369.459-.553 1.081-.553 1.862 0 .779.184 1.399.553 1.857.369.459.866.688 1.493.688.626 0 1.124-.229 1.492-.688.37-.458.553-1.078.553-1.857 0-.778-.184-1.398-.553-1.86ZM29.687 31.724v1.056h-4.438v-6.998h1.253v5.94h3.185v.002ZM30.586 25.782h2.56c1.051 0 1.87.305 2.456.913.586.607.879 1.463.879 2.57 0 1.108-.293 1.973-.88 2.59-.585.617-1.404.927-2.454.927h-2.561v-7Zm1.253 1.059v4.883h1.177c.707 0 1.247-.21 1.623-.63.377-.418.564-1.028.564-1.824 0-.784-.19-1.384-.569-1.802-.378-.418-.916-.627-1.616-.627h-1.18ZM17.506 34.889c1.02 0 1.83.325 2.427.975.598.65.896 1.53.896 2.643 0 1.114-.298 1.993-.896 2.641-.599.648-1.407.973-2.427.973-1.023 0-1.834-.323-2.433-.973-.598-.65-.896-1.53-.896-2.64 0-1.112.298-1.994.896-2.644.599-.65 1.41-.975 2.433-.975Zm1.492 1.756c-.369-.458-.866-.69-1.492-.69-.624 0-1.122.229-1.493.688-.369.458-.553 1.08-.553 1.862 0 .778.184 1.398.553 1.857.368.458.866.688 1.492.688.627 0 1.124-.23 1.493-.688.369-.459.553-1.079.553-1.857.003-.779-.184-1.399-.553-1.86ZM23.082 35.005v4.417c0 .484.144.874.43 1.167.287.292.686.438 1.197.438.51 0 .911-.146 1.2-.438.287-.293.431-.683.431-1.167v-4.417h1.25v4.528c0 .773-.26 1.396-.78 1.872-.52.476-1.22.713-2.101.713-.88 0-1.579-.237-2.1-.713-.522-.476-.782-1.099-.782-1.872v-4.528h1.255ZM31.796 42.002h-1.25v-5.939h-2.1v-1.056h5.443v1.056h-2.093v5.94Z"/></svg>