<svg width="16" height="16" viewBox="0 0 22 22" fill="none" xmlns="http://www.w3.org/2000/svg"><g clip-path="url(#a)"><path d="M11 22c6.133 0 11-4.965 11-11 0-6.133-4.965-11-11-11C4.867 0 0 4.965 0 11s4.965 11 11 11Z" fill="#A1A1A4"/><path d="M7.703 12.11c.46 0 .909-.153 1.271-.433L6.058 8.76a2.083 2.083 0 0 0 .374 2.92c.367.276.811.43 1.271.43ZM16.376 10.028c0-.46-.153-.908-.434-1.27l-2.916 2.915a2.078 2.078 0 0 0 3.35-1.645Z" fill="#fff"/><path d="m17.845 6.854-1.29 1.29a2.939 2.939 0 0 1-4.138 4.138L11 13.7l-1.413-1.413a2.939 2.939 0 0 1-4.138-4.138l-.662-.662-.628-.632A8 8 0 0 0 11 19a8 8 0 0 0 8-8 7.981 7.981 0 0 0-1.155-4.146Z" fill="#fff"/><path d="M16.787 5.478a7.996 7.996 0 0 0-12.135.655L11 12.484l6.348-6.351a7.727 7.727 0 0 0-.561-.655ZM11 4.047c1.87 0 3.611.721 4.92 2.037L11 11.004l-4.92-4.92A6.876 6.876 0 0 1 11 4.047Z" fill="#fff"/></g><defs><clipPath id="a"><path fill="#fff" d="M0 0h22v22H0z"/></clipPath></defs></svg>