<svg xmlns="http://www.w3.org/2000/svg" width="381" height="77" fill="none"><path fill="url(#a)" d="m17.28 38.31-8.6 8.6L0 38.31l8.68-8.68 8.6 8.68Zm21.03-21.03L53.13 32.1l8.68-8.68L38.31 0 14.82 23.5l8.68 8.68 14.82-14.89-.01-.01Zm29.63 12.35-8.6 8.68 8.68 8.68 8.68-8.68-8.75-8.68h-.01ZM38.31 59.34 23.49 44.45l-8.68 8.68 23.5 23.5 23.5-23.5-8.68-8.68-14.82 14.89Zm0-12.42 8.68-8.68-8.68-8.6-8.68 8.68 8.68 8.6Zm91.29.9v-.15c0-5.61-2.99-8.46-7.86-10.33 2.99-1.65 5.54-4.34 5.54-9.05v-.15c0-6.58-5.31-10.85-13.84-10.85H93.91v41.97h19.98c9.5.07 15.71-3.82 15.71-11.45v.01Zm-11.52-17.96c0 3.14-2.54 4.41-6.66 4.41h-8.53v-8.9h9.13c3.89 0 6.06 1.57 6.06 4.34v.15Zm2.32 16.76c0 3.14-2.47 4.56-6.51 4.56h-11v-9.2h10.7c4.71 0 6.81 1.72 6.81 4.56v.08Zm28.58 12.72V17.28h-9.28v41.98h9.28v.08Zm49.68 0V17.28h-9.13v25.89l-19.68-25.89h-8.53v41.98h9.13V32.62l20.35 26.71h7.86v.01Zm51.18 0-18.03-42.28h-8.53l-18.03 42.28h9.5l3.82-9.43h17.73l3.82 9.43h9.73-.01ZM233 41.76h-11.15l5.61-13.62L233 41.76Zm60.91 17.58V17.28h-9.13v25.89L265.1 17.28h-8.53v41.98h9.13V32.62l20.35 26.71h7.86v.01Zm47.66-6.81-5.91-5.91c-3.29 2.99-6.21 4.94-11.07 4.94-7.18 0-12.2-5.99-12.2-13.17v-.22c0-7.18 5.09-13.09 12.2-13.09 4.19 0 7.48 1.8 10.77 4.71l5.91-6.81c-3.89-3.82-8.6-6.51-16.54-6.51-12.87 0-21.92 9.8-21.92 21.7v.15c0 12.05 9.2 21.62 21.55 21.62 8.08.07 12.87-2.77 17.21-7.41ZM381 59.34v-8.23h-22.82v-8.83h19.83v-8.23h-19.83v-8.53h22.52v-8.23h-31.65v41.97l31.95.07v.01Z"/><defs><linearGradient id="a" x1="0" x2="381.01" y1="38.31" y2="38.31" gradientUnits="userSpaceOnUse"><stop stop-color="#F8D33A"/><stop offset="1" stop-color="#F0B90B"/></linearGradient></defs></svg>