<svg xmlns="http://www.w3.org/2000/svg" width="49" height="35" fill="none"><path fill="#F8D33A" d="M21.7 16.906c-4.282 0-7.95-2.93-7.95-5.676 0-1.64 1.004-2.644 2.561-2.644 3.238 0 6.046 3.586 6.046 7.705v.615H21.7ZM0 17.234V6.352C0 2.132 2.152 0 6.434 0h16.312v9.939c-1.414-2.787-3.853-4.488-6.598-4.488-3.136 0-5.492 2.356-5.492 5.533 0 2.745 1.905 5.02 4.651 6.25H0ZM6.434 35C2.152 35 0 32.89 0 28.668v-8.996h20.635c-1.27 2.603-5.43 6.496-8.463 6.844-1.127.123-1.762.8-1.762 1.886 0 .963.778 1.864 2.028 1.7 3.361-.491 8.75-4.446 10.164-8.913h.144V35H6.434Z"/><path fill="#F0B90B" d="M25.43 0v9.939c1.435-2.787 3.873-4.488 6.599-4.488 3.155 0 5.491 2.356 5.491 5.533 0 2.745-1.885 5.02-4.651 6.25h15.287V6.352C48.156 2.132 46.024 0 41.72 0h-16.29Z"/><path fill="#F0B90B" d="M25.82 16.906h.655c4.303 0 7.951-2.93 7.951-5.676 0-1.64-.983-2.644-2.561-2.644-3.238 0-6.045 3.586-6.045 7.705v.615ZM27.561 19.672c1.25 2.603 5.43 6.537 8.443 6.844 1.148.103 1.783.8 1.783 1.886 0 .963-.779 1.864-2.029 1.7-3.36-.491-8.75-4.446-10.164-8.913h-.164V35h16.291c4.303 0 6.435-2.11 6.435-6.332v-8.996H27.56Z"/></svg>