<svg xmlns="http://www.w3.org/2000/svg" width="66" height="48" fill="none"><path fill="#43614E" d="M29.474 22.961c-5.817 0-10.799-3.98-10.799-7.709 0-2.227 1.364-3.59 3.48-3.59 4.397 0 8.21 4.87 8.21 10.464v.835h-.89ZM0 23.407V8.627C0 2.896 2.922 0 8.74 0h22.154v13.498c-1.92-3.785-5.233-6.095-8.962-6.095-4.259 0-7.46 3.201-7.46 7.515 0 3.73 2.589 6.819 6.319 8.489H0Zm8.74 24.13c-5.818 0-8.74-2.867-8.74-8.6V26.719h28.027c-1.726 3.534-7.376 8.822-11.495 9.296-1.53.167-2.393 1.085-2.393 2.56 0 1.308 1.057 2.533 2.755 2.31 4.565-.668 11.884-6.04 13.805-12.107h.195v18.76H8.739Z"/><path fill="#5D886C" d="M34.54 0v13.498c1.948-3.785 5.26-6.095 8.962-6.095 4.286 0 7.458 3.201 7.458 7.515 0 3.73-2.56 6.819-6.317 8.489h20.762V8.627C65.405 2.896 62.511 0 56.666 0H34.54Z"/><path fill="#5D886C" d="M35.068 22.961h.891c5.845 0 10.799-3.98 10.799-7.709 0-2.227-1.336-3.59-3.48-3.59-4.397 0-8.21 4.87-8.21 10.464v.835ZM37.434 26.719c1.698 3.534 7.376 8.878 11.467 9.296 1.558.139 2.421 1.085 2.421 2.56 0 1.308-1.057 2.533-2.755 2.31-4.565-.668-11.884-6.04-13.805-12.107h-.222v18.76h22.126c5.845 0 8.74-2.868 8.74-8.601V26.719H37.433Z"/></svg>